<svg xmlns="http://www.w3.org/2000/svg" viewBox="0 0 35 40.41"><defs><style>.cls-1{fill:none;stroke:#000;stroke-linecap:round;stroke-linejoin:round;stroke-width:2px;}</style></defs><title>Asset 52</title><g id="Layer_2" data-name="Layer 2"><g id="Layer_1-2" data-name="Layer 1"><path class="cls-1" d="M7,4.41H1v35H34v-35H29"/><path class="cls-1" d="M33,13.41H1"/><path class="cls-1" d="M22,4.41H12"/><path class="cls-1" d="M6.5,4.91c.67,1.25,1.35,2.5,2.29,4.26,2.87-3.1,3.91-5.43,0-8.17L6.5,4.41"/><path class="cls-1" d="M22.5,4.91c.67,1.25,1.35,2.5,2.29,4.26,2.87-3.1,3.91-5.43,0-8.17L22.5,4.41"/><path class="cls-1" d="M16.5,28.41l-1.5,3,3.28,1.15,1.07-1.26L17,28.41"/><path class="cls-1" d="M24.5,28.41l-1.5,3,3.28,1.15,1.07-1.26L25,28.41"/><path class="cls-1" d="M24.5,20.41l-1.5,3,3.28,1.15,1.07-1.26L25,20.41"/><path class="cls-1" d="M8.5,28.41l-1.5,3,3.28,1.15,1.07-1.26L9,28.41"/><path class="cls-1" d="M16.5,20.41l-1.5,3,3.28,1.15,1.07-1.26L17,20.41"/><path class="cls-1" d="M8.5,20.41l-1.5,3,3.28,1.15,1.07-1.26L9,20.41"/></g></g></svg>