<svg xmlns="http://www.w3.org/2000/svg" viewBox="0 0 33.89 41.01"><defs><style>.cls-1{fill:none;stroke:#000;stroke-linecap:round;stroke-linejoin:round;stroke-width:2px;}</style></defs><title>Asset 92</title><g id="Layer_2" data-name="Layer 2"><g id="Layer_1-2" data-name="Layer 1"><path class="cls-1" d="M14.48,8C8,9.69,3.17,13.33,1.55,20,.05,26.16,1.6,31.7,6.49,36a15.18,15.18,0,0,0,16,2.95C29.1,36.57,32.67,31.4,32.88,24.5,33.07,18.19,30.44,13,24.47,10c-1.6-.8-3.32-1.35-5-2"/><path class="cls-1" d="M17,21c-2.51.57-4,1.94-2.39,4.43.47.77,2.25,1.05,3.38,1,.72-.06,2-1.51,1.89-1.84A19.84,19.84,0,0,0,17.48,21"/><path class="cls-1" d="M23.48,17.5,20,21"/><path class="cls-1" d="M14.48,1l-2,1.14L17.47,9l4.1-8H15"/></g></g></svg>