<svg xmlns="http://www.w3.org/2000/svg" viewBox="0 0 47 34.95"><defs><style>.cls-1{fill:none;stroke:#000;stroke-linecap:round;stroke-linejoin:round;stroke-width:2px;}</style></defs><title>Asset 56</title><g id="Layer_2" data-name="Layer 2"><g id="Layer_1-2" data-name="Layer 1"><path class="cls-1" d="M1,12c2.78.81,3.44,5.52,7.53,4.1C8.77,16,10,17.35,9.93,18c-.15,5.73,4.54,8.29,7.5,12.05,5.22,6.62,13.27,4.71,15.8-4.93l-5.59-7.37c-3.14,1.25-5.58,2.51-8.17,3.11-.88.2-2.14-1.28-3.47-2.15l6.58-7.09L30.5,9"/><path class="cls-1" d="M12,1l4.76,5.72L8.5,15.5"/><path class="cls-1" d="M35,1,30.39,6.54c3.46,3.61,6.64,6.94,9.9,10.33L46,12"/><path class="cls-1" d="M38.5,16c-.83,1.67-1.59,3.38-2.52,5-.72,1.23-1.65,2.34-2.48,3.51"/><path class="cls-1" d="M16.5,9,21,11.5"/></g></g></svg>