<svg xmlns="http://www.w3.org/2000/svg" viewBox="0 0 46.09 31.93"><defs><style>.cls-1{fill:none;stroke:#000;stroke-linecap:round;stroke-linejoin:round;stroke-width:2px;}</style></defs><title>Asset 68</title><g id="Layer_2" data-name="Layer 2"><g id="Layer_1-2" data-name="Layer 1"><path class="cls-1" d="M45.09,16C41.44,8.75,36.33,3,28.07,1.52c-9.95-1.82-18.29,1-24,9.92C3.11,13,2,14.38,1,15.77c3.74,7.37,8.87,13,17.1,14.63,10.29,2.08,19.89-2,25.5-11.95a19.21,19.21,0,0,1,1.49-2"/><path class="cls-1" d="M23.09,11c-3,.33-5.12,2-4.82,5,.16,1.6,1.86,3.55,3.39,4.39,2.48,1.37,4.93.3,5.86-2.4,1.22-3.53-.16-6-3.93-7"/><path class="cls-1" d="M22.09,5c-5.72.94-9.33,4.25-9.91,10a10.36,10.36,0,0,0,5.4,10.51A10.75,10.75,0,0,0,29,25.32,10.35,10.35,0,0,0,34,15a10.62,10.62,0,0,0-7.46-9.46,18.54,18.54,0,0,0-4-.54"/></g></g></svg>