<svg xmlns="http://www.w3.org/2000/svg" viewBox="0 0 30.17 40.85"><defs><style>.cls-1{fill:none;stroke:#000;stroke-linecap:round;stroke-linejoin:round;stroke-width:2px;}</style></defs><title>Asset 59</title><g id="Layer_2" data-name="Layer 2"><g id="Layer_1-2" data-name="Layer 1"><path class="cls-1" d="M15.32,33.85c-2.78-2.21-5.38-4.91-9.49-3.7-.07,6.74,2.11,9.7,7,9.7,10.41,0,12.08-1.33,12-9.5-8.11-.08-9.5,1.15-9.5,8.5"/><path class="cls-1" d="M6.32,19.1c-.24,1.48-.48,3-.76,4.75h5.88s2.14,2.91,3.63,4.78l4.25-3.78a4,4,0,0,1-.5-1h5.5V18.53A32.26,32.26,0,0,0,29.17,15c-2-1.73-4.85-4-4.85-4V4.85H19c-.68-.34-1.94-1.92-3.49-3.85-1.74,2-3,3.42-4,4.85H5.32v5.31L1,14.63l4.82,4.22"/><path class="cls-1" d="M15.32,10.85c-3.34.73-4.79,2.81-3.36,5.93.48,1.06,2.59,2,3.84,1.88a4.08,4.08,0,0,0,2.84-2.82c.06-1.47-1.12-3-1.85-4.48-.13-.27-.63-.35-1-.51"/></g></g></svg>