<svg xmlns="http://www.w3.org/2000/svg" viewBox="0 0 49.47 33.77"><defs><style>.cls-1{fill:none;stroke:#000;stroke-linecap:round;stroke-linejoin:round;stroke-width:2px;}</style></defs><title>Asset 12</title><g id="Layer_2" data-name="Layer 2"><g id="Layer_1-2" data-name="Layer 1"><path class="cls-1" d="M8.54,10l3,10.75H37.87C38.79,16,40.1,11.54,40.42,7c.33-4.85-1.06-5.93-5.88-6C28.2,1,21.87,1,15.54,1c-6.14,0-6.77.68-7,7A6.09,6.09,0,0,1,8,9.52"/><path class="cls-1" d="M41.54,9.27c2.67-.48,5.26-.59,6.48,2.51,1.6,4.06-1.33,6-4.48,8.19,0,1,0,2.13,0,3.3.06,2.77-1,3.69-4,3.6q-15-.4-30,0C6.51,27,5.2,26,5.6,23.28c.51-3.45-1.45-4.86-4-5.74-1.57-7-.2-8.85,5.94-8.27"/><path class="cls-1" d="M36.54,27.57l1.08,5.2h1.83q.54-2.6,1.09-5.2"/><path class="cls-1" d="M8.54,27.57l1.08,5.2h1.83q.54-2.6,1.09-5.2"/></g></g></svg>