<svg xmlns="http://www.w3.org/2000/svg" viewBox="0 0 45.28 38.06"><defs><style>.cls-1{fill:none;stroke:#000;stroke-linecap:round;stroke-linejoin:round;stroke-width:2px;}</style></defs><title>Asset 60</title><g id="Layer_2" data-name="Layer 2"><g id="Layer_1-2" data-name="Layer 1"><path class="cls-1" d="M19.1,24.05C15,25.51,11.86,27.93,11,32.47c6.63,5.93,15,6.11,23.15.54-.51-4.93-3.79-7.39-8.06-9"/><path class="cls-1" d="M15.6,13.05c-9.53,0-12.13,1.53-14.6,8.79C4.16,26,9.32,25.17,13.6,26.55"/><path class="cls-1" d="M31.6,26.55l12.68-3.47c-.55-6.07-4.14-8.25-8.18-10"/><path class="cls-1" d="M9.6,12.55C6.14,10.49,6.34,6.9,7.31,4.13c.87-2.46,3.6-3.56,6.81-2.65,5.12,1.44,5.81,5.93,2.15,10.28.35,2,.85,3.43.78,4.79-.27,5.08,1.44,7.5,5.55,7.5s5.87-2.59,5.56-7.5c-.07-1.14.61-2.33.94-3.5"/><path class="cls-1" d="M26.6,7.55c.82,3.12,2.29,6,6,5.34A9.16,9.16,0,0,0,38,9c1.48-2.42.53-5.11-1.86-6.89-3.5-2.61-8-.24-9.49,5"/><path class="cls-1" d="M27.6,14.05q-5-3.68-10,0"/></g></g></svg>