<svg xmlns="http://www.w3.org/2000/svg" viewBox="0 0 34.49 40.06"><defs><style>.cls-1{fill:none;stroke:#000;stroke-linecap:round;stroke-linejoin:round;stroke-width:2px;}</style></defs><title>Asset 29</title><g id="Layer_2" data-name="Layer 2"><g id="Layer_1-2" data-name="Layer 1"><path class="cls-1" d="M9.49,15.5c-5.54,2.56-9,6.65-8.43,13C1.54,33.67,6.85,38.44,12,39c5.47.59,10.32-3.1,12.5-9.5"/><path class="cls-1" d="M13,10V24H26l-.54,1.3,8,7.45"/><path class="cls-1" d="M23,16H14"/><path class="cls-1" d="M13,1C9.65,1.73,8.2,3.82,9.63,6.94c.48,1,2.59,2,3.84,1.88A4.13,4.13,0,0,0,16.31,6c.06-1.47-1.12-3-1.85-4.48-.13-.26-.64-.34-1-.51"/></g></g></svg>