<svg xmlns="http://www.w3.org/2000/svg" viewBox="0 0 30.12 41.52"><defs><style>.cls-1{fill:none;stroke:#000;stroke-linecap:round;stroke-linejoin:round;stroke-width:2px;}</style></defs><title>Asset 95</title><g id="Layer_2" data-name="Layer 2"><g id="Layer_1-2" data-name="Layer 1"><path class="cls-1" d="M24.54,33.52c3.42-1.1,4.71-3.35,4.57-7-.25-6.49,0-13-.08-19.5C29,2.18,27.88,1.09,23,1c-5.5-.06-11,0-16.5,0-2.9,0-5.36.81-5.43,4C.91,13.69,1,22.36,1,31.69c2.22.49,4.1,1.22,6,1.27,5.66.16,11.33.06,17,.06"/><path class="cls-1" d="M3.54,40.52C3.19,38.07,4.7,38,6.54,38c5.67.07,11.34-.13,17,.14,1.37.07,2.67,1.56,4,2.39"/><line class="cls-1" x1="20.04" y1="5.02" x2="11.04" y2="5.02"/><path class="cls-1" d="M5.54,34,5,37.52"/><path class="cls-1" d="M24.54,34l.5,3.5"/><path class="cls-1" d="M7.87,9c-4.2,3.32-1,7.66-2.54,12H24V9H8"/></g></g></svg>