<svg xmlns="http://www.w3.org/2000/svg" viewBox="0 0 33.23 39"><defs><style>.cls-1{fill:none;stroke:#000;stroke-linecap:round;stroke-linejoin:round;stroke-width:2px;}</style></defs><title>Asset 70</title><g id="Layer_2" data-name="Layer 2"><g id="Layer_1-2" data-name="Layer 1"><line class="cls-1" x1="16.91" y1="1" x2="16.91" y2="25"/><line class="cls-1" x1="4.91" y1="15" x2="4.91" y2="38"/><line class="cls-1" x1="28.91" y1="19" x2="28.91" y2="38"/><line class="cls-1" x1="28.91" y1="1" x2="28.91" y2="10"/><path class="cls-1" d="M4.91,6C1.57,6.73.12,8.82,1.55,11.94,2,13,4.14,14,5.39,13.82A4.11,4.11,0,0,0,8.23,11c.06-1.47-1.12-3-1.84-4.48-.14-.26-.64-.34-1-.51"/><path class="cls-1" d="M28.91,10c-3.34.73-4.79,2.82-3.36,5.94.48,1,2.59,2,3.84,1.88A4.11,4.11,0,0,0,32.23,15c.06-1.47-1.12-3-1.84-4.48-.14-.26-.64-.34-1-.51"/><path class="cls-1" d="M16.91,25c-3.34.73-4.79,2.82-3.36,5.94.48,1,2.59,2,3.84,1.88A4.11,4.11,0,0,0,20.23,30c.06-1.47-1.12-3-1.84-4.48-.14-.26-.64-.34-1-.51"/></g></g></svg>