<svg xmlns="http://www.w3.org/2000/svg" viewBox="0 0 41.22 40.15"><defs><style>.cls-1{fill:none;stroke:#000;stroke-linecap:round;stroke-linejoin:round;stroke-width:2px;}</style></defs><title>Asset 14</title><g id="Layer_2" data-name="Layer 2"><g id="Layer_1-2" data-name="Layer 1"><path class="cls-1" d="M14.14,24,1,35.18l3.74,4c.91-.31,1.53-.34,1.89-.67,3.2-3,6.55-5.8,9.44-9,1.78-2,1.54-4.27-1.43-5.43"/><path class="cls-1" d="M27.14,1C21,2.17,17.19,5.82,16.19,12c-.69,4.24,2.32,9.1,6.44,11.52a10.64,10.64,0,0,0,11.43-.16c4.11-2.56,6.88-6.69,6-11.85a12,12,0,0,0-8.91-10A26.83,26.83,0,0,0,27.64,1"/></g></g></svg>