<svg xmlns="http://www.w3.org/2000/svg" viewBox="0 0 35 39"><defs><style>.cls-1{fill:none;stroke:#000;stroke-linecap:round;stroke-linejoin:round;stroke-width:2px;}</style></defs><title>Asset 22</title><g id="Layer_2" data-name="Layer 2"><g id="Layer_1-2" data-name="Layer 1"><line class="cls-1" x1="17.5" y1="1" x2="17.5" y2="38"/><path class="cls-1" d="M8,13l8.5,5"/><path class="cls-1" d="M27,13l-8.5,5"/><path class="cls-1" d="M16.5,20,8,25"/><path class="cls-1" d="M18.5,20,27,25"/><path class="cls-1" d="M34,22.5l-6.1,1.74L29,31.5"/><path class="cls-1" d="M29,6.5c-.39,2.3-.78,4.59-1.21,7.14L34,15.5"/><path class="cls-1" d="M6,6.5c.39,2.3.78,4.59,1.21,7.14L1,15.5"/><path class="cls-1" d="M1,22.5l6.21,1.78c-.39,2.35-.8,4.79-1.21,7.22"/><path class="cls-1" d="M6.5,25.5,1,28.5"/><path class="cls-1" d="M1,9.5l5,3"/><path class="cls-1" d="M34,9.5l-5,3"/><path class="cls-1" d="M29,25.5l5,3"/><path class="cls-1" d="M22,3.5c-4.5,4.29-4.5,4.29-9,0"/><path class="cls-1" d="M22,34.5c-4.5-4.29-4.5-4.29-9,0"/></g></g></svg>