<svg xmlns="http://www.w3.org/2000/svg" viewBox="0 0 34.07 39.84"><defs><style>.cls-1{fill:none;stroke:#000;stroke-linecap:round;stroke-linejoin:round;stroke-width:2px;}</style></defs><title>Asset 85</title><g id="Layer_2" data-name="Layer 2"><g id="Layer_1-2" data-name="Layer 1"><path class="cls-1" d="M31.53,34c.5-1.33,1.41-2.66,1.44-4,.13-7.66.11-15.33.05-23,0-4.83-1.15-5.94-6-6q-10-.11-20,0c-4.83,0-5.94,1.15-6,6C1,14.7,1,22.37,1.1,30c0,1.34.93,2.67,1.43,4"/><path class="cls-1" d="M25,34.78c-.24,2.57.36,4.37,3.5,4s2.32-2.57,2.59-4.76H3.37c-.54,2.36-.83,4.32,2.16,4.74,3.14.44,3.75-1.42,3.5-4"/><line class="cls-1" x1="23.03" y1="5.03" x2="12.03" y2="5.03"/><path class="cls-1" d="M7.86,9c-.69,1.21-1.88,2.38-2,3.63-.27,3.61-.1,7.25-.1,11.37H28V9H8"/></g></g></svg>