<svg xmlns="http://www.w3.org/2000/svg" viewBox="0 0 40.09 40.52"><defs><style>.cls-1{fill:none;stroke:#000;stroke-linecap:round;stroke-linejoin:round;stroke-width:2px;}</style></defs><title>Asset 33</title><g id="Layer_2" data-name="Layer 2"><g id="Layer_1-2" data-name="Layer 1"><path class="cls-1" d="M33.07,36.5V19.75l6-2.69c.07-2.74-.61-4.43-3.46-5.64A38.66,38.66,0,0,0,14.57,9"/><path class="cls-1" d="M13.57,9c-2.84.67-5.82,1-8.46,2.1S.43,13.66,1.39,17.54c.73,2.95-.28,6.29-.3,9.46C1,35.66-.38,35.71,10.6,38.35a41.22,41.22,0,0,0,23.52-1.2c3.64-1.27,5.13-3,5-6.65-.19-4.17-.34-8.33-.5-12.5"/><line class="cls-1" x1="13.07" y1="22.5" x2="13.07" y2="38.5"/><path class="cls-1" d="M20.07,22.5v16"/><line class="cls-1" x1="27.07" y1="22.5" x2="27.07" y2="38.5"/><path class="cls-1" d="M2.07,17.5l5,2.09V36.5"/><path class="cls-1" d="M32.57,20.5c-6.17.17-12.34.39-18.5.47-2.17,0-4.34-.3-6.5-.47"/><path class="cls-1" d="M13.07,5,7.57,6.5"/><path class="cls-1" d="M11.57,1c4.09,3.12,1.85,7.63,2.63,11.64L8.07,14"/><path class="cls-1" d="M4.57,4c2.94,1,2.22,3.89,3,6"/></g></g></svg>