<svg xmlns="http://www.w3.org/2000/svg" viewBox="0 0 44 39.72"><defs><style>.cls-1{fill:none;stroke:#000;stroke-linecap:round;stroke-linejoin:round;stroke-width:2px;}</style></defs><title>Asset 62</title><g id="Layer_2" data-name="Layer 2"><g id="Layer_1-2" data-name="Layer 1"><path class="cls-1" d="M35.5,37.77c3.67-3.42,5.27-7.5,4.17-12.75H4.53c-1.28,9.47,2.12,13.79,11,13.7,6.5-.07,13-.62,19.5-.95"/><path class="cls-1" d="M7.5,2C4.63-.29,4.08,1.74,4,4c-.1,5.5,0,11,0,17.5,12.66,0,24.83,0,37,.06.38,0,.77.86,2,2.34L40.5,25"/><path class="cls-1" d="M15,2.52,8.45,1.17c-.38,2.76-.65,4.74-.93,6.72L9,8.53,14.5,3"/><path class="cls-1" d="M3.44,21,1,22.09V24L3.44,25"/></g></g></svg>