<svg xmlns="http://www.w3.org/2000/svg" viewBox="0 0 38.01 38"><defs><style>.cls-1{fill:none;stroke:#000;stroke-linecap:round;stroke-linejoin:round;stroke-width:2px;}</style></defs><title>Asset 27</title><g id="Layer_2" data-name="Layer 2"><g id="Layer_1-2" data-name="Layer 1"><path class="cls-1" d="M13.51,23.5,19,24l5.5.5"/><path class="cls-1" d="M13.51,19.5,19,20l5.5.5"/><path class="cls-1" d="M3,1c-.68.85-1.93,1.68-1.95,2.54C1,14.52,1,25.51,1,37H37V1H4"/><path class="cls-1" d="M18,11c-5.72.95-9.33,4.25-9.92,10A10.4,10.4,0,0,0,13.5,31.52a10.77,10.77,0,0,0,11.44-.14A10.36,10.36,0,0,0,30,21a10.65,10.65,0,0,0-7.46-9.47,19.28,19.28,0,0,0-4-.54"/></g></g></svg>