<svg xmlns="http://www.w3.org/2000/svg" viewBox="0 0 39.87 36.03"><defs><style>.cls-1{fill:none;stroke:#000;stroke-linecap:round;stroke-linejoin:round;stroke-width:2px;}</style></defs><title>Asset 88</title><g id="Layer_2" data-name="Layer 2"><g id="Layer_1-2" data-name="Layer 1"><path class="cls-1" d="M1.5,34.53c5.76-3,11.29-.39,17,.36,8.89,1.16,18.61-5.28,20.08-13.84C40.84,8.12,28.88-.14,18,1.13,5.68,2.57-3.44,12.86,3.27,26.57l-.77,7"/><path class="cls-1" d="M19.5,13c-2.35-2.46-5.13-3-7.41-.42-2,2.23-1.44,5.09.43,7.41,2.22,2.74,4.58,5.37,7.49,8.77,2.73-3.23,4.82-5.78,7-8.25s3-5.37.9-7.94c-2.46-3-5.35-1.38-7.91.43"/></g></g></svg>