<svg xmlns="http://www.w3.org/2000/svg" viewBox="0 0 40.3 39.6"><defs><style>.cls-1{fill:none;stroke:#000;stroke-linecap:round;stroke-linejoin:round;stroke-width:2px;}</style></defs><title>Asset 16</title><g id="Layer_2" data-name="Layer 2"><g id="Layer_1-2" data-name="Layer 1"><path class="cls-1" d="M25.5,26.38c1.67-3.34,3.71-6.54,4.91-10A12.35,12.35,0,0,0,26,2.38C23.3.54,16.7.54,14,2.38A12.29,12.29,0,0,0,9.6,15.85c1.16,3.66,3.23,7,4.9,10.53"/><path class="cls-1" d="M1.5,37.63c1.29.51,2.57,1.71,3.87.27C12,30.54,22.91,29,30.55,35.31c5.3,4.39,5,3.43,8.75,2.49L34.5,26.88H24.25l-3.82,4.2c-1.43-1.61-2.91-3.3-3.72-4.2H5.51L1,37.13"/><path class="cls-1" d="M20,7.88c-3.34.73-4.8,2.81-3.37,5.93.49,1.06,2.6,2,3.85,1.88a4.09,4.09,0,0,0,2.84-2.82c.06-1.47-1.12-3-1.85-4.48-.13-.27-.64-.35-1-.51"/></g></g></svg>