<svg xmlns="http://www.w3.org/2000/svg" viewBox="0 0 41.53 36.19"><defs><style>.cls-1{fill:none;stroke:#000;stroke-linecap:round;stroke-linejoin:round;stroke-width:2px;}</style></defs><title>Asset 73</title><g id="Layer_2" data-name="Layer 2"><g id="Layer_1-2" data-name="Layer 1"><path class="cls-1" d="M25,14.81c-2-4.62-3.79-9.22,1.71-13l1.41,2.77H35l3-3.56c.49.88,1.12,1.81,1.56,2.81,2.15,4.9.79,9-2.48,11.79a39.37,39.37,0,0,1,0,4.7c-.94,6.71-.68,7-7.48,7.38-8.81.5-17.66.13-26.49.13"/><path class="cls-1" d="M36,16.06c-5.86,1.78-11.07-.37-16-3.06-7.49-4.11-16.39-.69-18.55,7.05A11,11,0,0,0,4.55,31.51c3.6,3.55,8,4.44,13,3.06,3.31-.92,6.66-1.68,10-2.51"/></g></g></svg>