<svg xmlns="http://www.w3.org/2000/svg" viewBox="0 0 45.11 41.5"><defs><style>.cls-1{fill:none;stroke:#000;stroke-linecap:round;stroke-linejoin:round;stroke-width:2px;}</style></defs><title>Asset 34</title><g id="Layer_2" data-name="Layer 2"><g id="Layer_1-2" data-name="Layer 1"><path class="cls-1" d="M41.05,21.5l3.06-1.34c-2.06-1.54-2.8-2.58-3.56-2.59q-18-.15-36,0c-.75,0-1.5,1.05-3.55,2.59L4.05,21.5"/><path class="cls-1" d="M10.38,22.5l-5.83-.62V40.5h36v-18h-30"/><path class="cls-1" d="M34.55,22.5v17"/><path class="cls-1" d="M16.55,22.5v17"/><path class="cls-1" d="M28.55,22.5v17"/><path class="cls-1" d="M22.55,22.5v17"/><path class="cls-1" d="M10.55,22.5v17"/><path class="cls-1" d="M21.05,1q1,5.51,2,11"/><path class="cls-1" d="M27.05,3l1,9"/><path class="cls-1" d="M16.05,3q1,4.5,2,9"/></g></g></svg>