<svg xmlns="http://www.w3.org/2000/svg" viewBox="0 0 34.04 39.8"><defs><style>.cls-1{fill:none;stroke:#000;stroke-linecap:round;stroke-linejoin:round;stroke-width:2px;}</style></defs><title>Asset 66</title><g id="Layer_2" data-name="Layer 2"><g id="Layer_1-2" data-name="Layer 1"><path class="cls-1" d="M23.09,31.78c9.91-5,11.73-14.21,8.47-21.48S22.07,0,14.09,1.28C7.24,2.39,2,8,1.09,15.28c-.8,6.31,3.67,14.4,10.06,16.32,3.52,1,7.61.18,11.44.18"/><path class="cls-1" d="M7.09,38.78h21"/><path class="cls-1" d="M17.59,11.28l5,5"/><path class="cls-1" d="M11.09,32.28c-1.66,1.67-3.23,3.46-5,5a14,14,0,0,1-3.46,1.54"/><path class="cls-1" d="M23.09,32.28c3.14,1.77,3.75,6.85,8.5,6.5"/><path class="cls-1" d="M16.07,8l-8,4.52v7.27l6,6h6.07l6-6V13.63c-2.52-3.24-5.05-6-9.51-5.6"/></g></g></svg>