<svg xmlns="http://www.w3.org/2000/svg" viewBox="0 0 40.02 40.01"><defs><style>.cls-1{fill:none;stroke:#000;stroke-linecap:round;stroke-linejoin:round;stroke-width:2px;}</style></defs><title>Asset 99</title><g id="Layer_2" data-name="Layer 2"><g id="Layer_1-2" data-name="Layer 1"><path class="cls-1" d="M30,4Q20-2,10,4"/><path class="cls-1" d="M36,10.48c4.26,6.5,3.76,13,0,19.5"/><path class="cls-1" d="M4,10.48C-.25,17,.25,23.48,4,30"/><path class="cls-1" d="M10.51,36q9.5,6.08,19,0"/><path class="cls-1" d="M3.12,30.23c-1.88,4.22,2.29,4.4,4.74,7.67L13.64,30H25.23l6,8,6.24-6.24L30,26.21V13.76l8-6L31.76,1.54C29.38,4.75,27.42,7.39,26.25,9H14.9l-1.12,1.37c-2-2.76-4-5.53-6.48-8.85C5.19,3.62,3.65,5.15,1,7.78l8,5.83V24.34L3.63,29.72"/><path class="cls-1" d="M14,11l-3,3"/><path class="cls-1" d="M29,14l-3-3"/><path class="cls-1" d="M11,26l3,3"/><path class="cls-1" d="M29,26l-3,3"/></g></g></svg>