<svg xmlns="http://www.w3.org/2000/svg" viewBox="0 0 40 39.82"><defs><style>.cls-1{fill:none;stroke:#000;stroke-linecap:round;stroke-linejoin:round;stroke-width:2px;}</style></defs><title>Asset 96</title><g id="Layer_2" data-name="Layer 2"><g id="Layer_1-2" data-name="Layer 1"><path class="cls-1" d="M20,12.82c-4.08.59-6.83,2.92-6.86,7,0,3.16,1.51,5.91,5.35,6.55,3.64.6,7.08-1.08,8-4.56s.53-6.89-6-9"/><path class="cls-1" d="M19,1.07a44.33,44.33,0,0,1-2.57,4,34.3,34.3,0,0,1-3.15,3.1l-4.55-3L5.33,8l1.86,7.9L1,18v4.16l6,1.95c-.3,2.12-.65,4.6-1,7.09l-1.29.51L8.29,35.3l5.06-3.44,5.62,7h3.14l2-5.88,7.18,1c.18.42.35.85.52,1.27,1.19-1.16,2.37-2.33,3.64-3.58-1.27-1.83-2-2.93-3.49-5L39,21.09V18l-6-2c.3-2.11.65-4.6,1-7.08l1.29-.52L31.71,4.85l-5,3.37c-1.19-1.34-2.87-2.56-3.6-4.2S21.93.63,19.49,1.07"/></g></g></svg>