<svg xmlns="http://www.w3.org/2000/svg" viewBox="0 0 32.06 40.86"><defs><style>.cls-1{fill:none;stroke:#000;stroke-linecap:round;stroke-linejoin:round;stroke-width:2px;}</style></defs><title>Asset 53</title><g id="Layer_2" data-name="Layer 2"><g id="Layer_1-2" data-name="Layer 1"><path class="cls-1" d="M4,15.86c-1,1.16-2.82,2.3-2.87,3.5C.89,26,1,32.7,1,39.86H31c0-7.14.11-14.33-.18-21.5,0-.72-2.46-1.85-3.83-1.92-7.49-.34-15-.42-22.49-.58"/><path class="cls-1" d="M28,14.86c-.1-5.42-1.2-10-7-12.61C16.62.26,12.87.66,9,3.34,5,6.18,4,10.27,4,14.86"/><path class="cls-1" d="M24,14.86c-.27-8.75-5.19-12.12-12-8.58-3.81,2-4,5.11-4,8.58"/><path class="cls-1" d="M12,26.61c.46,2.29.92,4.59,1.45,7.25H19c0-1.92-.48-3.78.1-5.21,1.06-2.63,1.4-4.79-1.62-6-3.25-1.31-4.74.58-5.48,3.47"/></g></g></svg>