<svg xmlns="http://www.w3.org/2000/svg" viewBox="0 0 39.87 36.03"><defs><style>.cls-1{fill:none;stroke:#000;stroke-linecap:round;stroke-linejoin:round;stroke-width:2px;}</style></defs><title>Asset 44</title><g id="Layer_2" data-name="Layer 2"><g id="Layer_1-2" data-name="Layer 1"><path class="cls-1" d="M1.5,34.53c5.76-3,11.29-.39,17,.36,8.89,1.16,18.61-5.28,20.08-13.84C40.84,8.12,28.88-.14,18,1.13,5.68,2.57-3.44,12.86,3.27,26.57c-.29,2.61-.53,4.78-.77,7"/><path class="cls-1" d="M28,16l-2.8,2.1L28,20.92l3.55-3.55L28.5,16"/><path class="cls-1" d="M20,16l-2.8,2.1L20,20.92l3.55-3.55L20.5,16"/><path class="cls-1" d="M12,16l-2.8,2.1L12,20.92l3.55-3.55L12.5,16"/></g></g></svg>