<svg xmlns="http://www.w3.org/2000/svg" viewBox="0 0 39.72 39.74"><defs><style>.cls-1{fill:none;stroke:#000;stroke-linecap:round;stroke-linejoin:round;stroke-width:2px;}</style></defs><title>Asset 89</title><g id="Layer_2" data-name="Layer 2"><g id="Layer_1-2" data-name="Layer 1"><path class="cls-1" d="M35.77,10.43c-4.22-7.77-11.27-10.7-21-8.94C7.93,2.74,2.58,9.83,1.24,17.92c-1.54,9.27,4.62,16,10,19C17.88,40.45,28.1,38.53,32.36,34c6.74-7.15,8.26-14.31,3.91-23.08"/><path class="cls-1" d="M35.77,10.93l-27,15.49c-1.49.86-3,1.67-4.5,2.51"/><path class="cls-1" d="M12.27,20.93c1.06-4.62,2.44-8.8,8.51-8.62.8,0,1.65-1.56,2.48-2.4l-.48-1H16.57c.47,1.15.83,2.07,1.2,3"/><path class="cls-1" d="M14,28c.7.69,1.38,2,2.09,2,5.22.18,10.45.1,15.65.1V20.93H25.41c-.15,1.81-.27,3.38-.48,6h5.84"/><line class="cls-1" x1="26.77" y1="23.93" x2="30.77" y2="23.93"/></g></g></svg>