<svg xmlns="http://www.w3.org/2000/svg" viewBox="0 0 20.04 42.12"><defs><style>.cls-1{fill:none;stroke:#000;stroke-linecap:round;stroke-linejoin:round;stroke-width:2px;}</style></defs><title>Asset 21</title><g id="Layer_2" data-name="Layer 2"><g id="Layer_1-2" data-name="Layer 1"><path class="cls-1" d="M9.41,1c-4,.66-5.53,3.19-5.51,7s.1,7.34,0,11c-.11,3.17.73,6.33-2.27,9.22C.37,29.42,1.41,33,1.41,35L6.87,40.5A8.34,8.34,0,0,0,17.3,36.93c2.29-3.55,2.62-7.48-.82-11-.67-.68-.54-2.26-.55-3.43q-.09-7,0-14c.05-4.18-1.41-7.08-6-7.5"/><path class="cls-1" d="M9.91,5C9.24,6.17,8.11,7.29,8,8.51c-.28,3,.12,6-.14,9-.43,4.87-1.18,9.72-1.79,14.58L3.41,33.5c1.66,1.67,3.33,3.33,5.41,5.41l6.73-6.39c-5.71-6.8-3-14.64-3.69-22A34.07,34.07,0,0,0,10.41,5"/></g></g></svg>