<svg xmlns="http://www.w3.org/2000/svg" viewBox="0 0 39.58 39.69"><defs><style>.cls-1{fill:none;stroke:#000;stroke-linecap:round;stroke-linejoin:round;stroke-width:2px;}</style></defs><title>Asset 76</title><g id="Layer_2" data-name="Layer 2"><g id="Layer_1-2" data-name="Layer 1"><path class="cls-1" d="M9.2,13.5c-.22,4.17-.45,8.33-.71,13.08l14.71.92"/><path class="cls-1" d="M7.7,7l25,25"/><path class="cls-1" d="M18.7,12.5l8.37.76c.56,1,1.31,2.41,2.06,3.77l3.57-1.21V24.1l-4-1.6"/><path class="cls-1" d="M18.7,1C7.24,3.29,2.68,7.72,1.2,18a18,18,0,0,0,10,19c6.66,3.43,16.55,1.22,21.13-2.85A19.15,19.15,0,0,0,26.17,2.07C24,1.24,21.53,1.33,19.2,1"/></g></g></svg>