<svg xmlns="http://www.w3.org/2000/svg" viewBox="0 0 35.06 41.96"><defs><style>.cls-1{fill:none;stroke:#000;stroke-linecap:round;stroke-linejoin:round;stroke-width:2px;}</style></defs><title>Asset 77</title><g id="Layer_2" data-name="Layer 2"><g id="Layer_1-2" data-name="Layer 1"><path class="cls-1" d="M30.06,39.71q0-17,0-34c0-.16-.32-.33-.73-.75H4.06V40"/><path class="cls-1" d="M30.56,5l2.55-1.12C28.56.05,5.55.05,1,3.84L3.56,5"/><path class="cls-1" d="M20.06,40V33h-6v7"/><line class="cls-1" x1="1.06" y1="40.96" x2="34.06" y2="40.96"/><path class="cls-1" d="M21.56,10.21C20.89,12,20.23,13.75,19.4,16h5c-1-2.17,1.28-4.76-2.31-5.75"/><path class="cls-1" d="M11.56,10.21C10.89,12,10.23,13.75,9.4,16h4.08c.46-2,2.24-4.3-1.42-5.75"/><path class="cls-1" d="M21.56,21.21C20.89,23,20.23,24.75,19.4,27h4.08c.46-1.95,2.24-4.3-1.42-5.75"/><path class="cls-1" d="M11.56,21.21c-.65,1.72-1.29,3.44-2.16,5.75h4.08c.46-1.95,2.24-4.3-1.42-5.75"/></g></g></svg>