<svg xmlns="http://www.w3.org/2000/svg" viewBox="0 0 44.27 30"><defs><style>.cls-1{fill:none;stroke:#000;stroke-linecap:round;stroke-linejoin:round;stroke-width:2px;}</style></defs><title>Asset 42</title><g id="Layer_2" data-name="Layer 2"><g id="Layer_1-2" data-name="Layer 1"><path class="cls-1" d="M11.27,15.75,7.85,21h9.44c.44-4-.81-5.33-5.52-5.75"/><line class="cls-1" x1="36.27" y1="10" x2="27.27" y2="10"/><line class="cls-1" x1="36.27" y1="15" x2="27.27" y2="15"/><line class="cls-1" x1="36.27" y1="20" x2="27.27" y2="20"/><path class="cls-1" d="M15.27,15c.38-2,2.56-4.31-1-5.46a7,7,0,0,0-2.86,0c-.17,1.82-.12,3.66-.12,5.49"/><path class="cls-1" d="M3.05,1c-.68.85-1.93,1.69-1.95,2.55C1,11.86,1,20.18,1,29H43.27V1h-40"/></g></g></svg>