<svg xmlns="http://www.w3.org/2000/svg" viewBox="0 0 26.01 42.15"><defs><style>.cls-1{fill:none;stroke:#000;stroke-linecap:round;stroke-linejoin:round;stroke-width:2px;}</style></defs><title>Asset 55</title><g id="Layer_2" data-name="Layer 2"><g id="Layer_1-2" data-name="Layer 1"><path class="cls-1" d="M1.71,29.15c-.23,3.83-.46,7.66-.71,12H20.71V25.64c-2.43-3.36-9-5.9-6.14-13.49H8.06C9.83,17.5,7,21,3.21,24.16c-1.42,1.16-2.8,2.39-1.5,4.49"/><path class="cls-1" d="M21.21,5.15,25,3.85l-.22-1.49C19,.05,12.73,1.4,6.7,1.31c-1.49,0-3,2-4.62,3.16l5.63,6.18"/><path class="cls-1" d="M19.71,28.15h-18"/><path class="cls-1" d="M20.21,5.15c-4.11-.46-5.16,2.69-6.5,5.5"/><path class="cls-1" d="M20.71,2.15q.24,5,.5,10"/><path class="cls-1" d="M16.21,8.15l7,6.5"/></g></g></svg>