<svg xmlns="http://www.w3.org/2000/svg" viewBox="0 0 40.33 38.02"><defs><style>.cls-1{fill:none;stroke:#000;stroke-linecap:round;stroke-linejoin:round;stroke-width:2px;}</style></defs><title>Asset 31</title><g id="Layer_2" data-name="Layer 2"><g id="Layer_1-2" data-name="Layer 1"><path class="cls-1" d="M20,5.75c-4.53,1.16-9.22,1.66-13,5C2.12,14.92,1.09,20.28,1,27H37.94C40.85,18.32,34.59,8.68,25,6.75c-1.5-.31-3-.67-4.5-1"/><path class="cls-1" d="M1,35.5c1,.5,2,1.42,3,1.43q15.75.16,31.5,0c1.28,0,2.54-.81,3.81-1.24l-.08-1.49c-1.41-.41-2.81-1.14-4.23-1.16-10-.1-20-.12-30,0-1.35,0-2.67,1.24-4,1.91"/><line class="cls-1" x1="25.02" y1="1" x2="16.02" y2="1"/></g></g></svg>