<svg xmlns="http://www.w3.org/2000/svg" viewBox="0 0 48.72 30.11"><defs><style>.cls-1{fill:none;stroke:#000;stroke-linecap:round;stroke-linejoin:round;stroke-width:2px;}</style></defs><title>Asset 35</title><g id="Layer_2" data-name="Layer 2"><g id="Layer_1-2" data-name="Layer 1"><path class="cls-1" d="M6.36,17.06a34.27,34.27,0,0,0,.57,5.48,19.61,19.61,0,0,0,2.07,4l1.36-.46V3c-5.88,4-2.24,9.54-4,13.54"/><path class="cls-1" d="M43.36,13.06a33.17,33.17,0,0,0-.57-5.49,19.12,19.12,0,0,0-2.07-4l-1.36.47v23c5.88-4,2.24-9.53,4-13.53"/><path class="cls-1" d="M33.36,13.06h-18"/><path class="cls-1" d="M33.36,17.06h-18"/><path class="cls-1" d="M38.36,3.56,37.24,1c-4.07,4.89-4.07,23.23,0,28.11l1.12-2.55"/><path class="cls-1" d="M10.36,3.56,11.48,1c4.07,4.89,4.07,23.23,0,28.11l-1.12-2.55"/><path class="cls-1" d="M43.36,17.06l4.36-2-4.36-2"/><path class="cls-1" d="M5.36,13.06,1,15.06l4.36,2"/></g></g></svg>