<svg xmlns="http://www.w3.org/2000/svg" viewBox="0 0 43.97 35.5"><defs><style>.cls-1{fill:none;stroke:#000;stroke-linecap:round;stroke-linejoin:round;stroke-width:2px;}</style></defs><title>Asset 63</title><g id="Layer_2" data-name="Layer 2"><g id="Layer_1-2" data-name="Layer 1"><path class="cls-1" d="M41,34.5c.35-2.45-1.16-2.53-3-2.52Q22,32,6,32c-1.84,0-3.34.07-3,2.52"/><path class="cls-1" d="M3,24H41"/><path class="cls-1" d="M36,11.5c2.34,4.5,5.07,8.85,6.81,13.57.69,1.9-.81,4.6-1.31,6.93"/><path class="cls-1" d="M8,11.5C5.65,16,2.92,20.35,1.18,25.07.49,27,2,29.67,2.48,32"/><path class="cls-1" d="M12,11.5q4,3.5,8,0"/><path class="cls-1" d="M24,11.5q4,3.5,8,0"/><path class="cls-1" d="M11.46,1C7.6,3.48,10.57,7,9.37,9.85c5.11,2.33,3.12-2.79,5.48-3.85h5.48c.37,1.47.71,2.79,1,4.1,4.54,2.08,2.55-3,4.91-4.1h4.65c2.36,1.06.36,6.18,5,4V1H12"/></g></g></svg>