<svg xmlns="http://www.w3.org/2000/svg" viewBox="0 0 39.67 37.57"><defs><style>.cls-1{fill:none;stroke:#000;stroke-linecap:round;stroke-linejoin:round;stroke-width:2px;}</style></defs><title>Asset 26</title><g id="Layer_2" data-name="Layer 2"><g id="Layer_1-2" data-name="Layer 1"><path class="cls-1" d="M34.05,30.5C30.39,25.5,27.2,20,22.86,15.7c-2.32-2.3-6.08-.5-8.3,2.31s-4.8,5.43-6.35,8.57c-1.13,2.27-1.77,5.61-.93,7.83,1.14,3,4.45,2,7.28,1.7a36,36,0,0,1,11,0c5.5,1,6.85.56,8.52-5.13"/><path class="cls-1" d="M31.05,16.5c.66,2.68,2.66,3.73,5,2.91,3-1.06,3.41-4.38,1.45-8.59-4.59-1.41-5.68,1.65-6.42,5.18"/><path class="cls-1" d="M26.05,1c-3.3,1.26-4.4,3.55-3.53,7s3,3.14,5.61,2.31C31,4.29,30.93,4,26.55,1"/><path class="cls-1" d="M14.55,1c4.94,3.72,4.76,7.22-.5,10-5.37-4.08-5.37-7.16,0-10"/><path class="cls-1" d="M3.55,10.5c-2.8,1.29-3,3.53-2,6,1.14,2.62,3.08,3.83,5.89,2.68,2.56-5.49,1.94-7-3.42-8.67"/></g></g></svg>