<svg xmlns="http://www.w3.org/2000/svg" viewBox="0 0 41.36 39.83"><defs><style>.cls-1{fill:none;stroke:#000;stroke-linecap:round;stroke-linejoin:round;stroke-width:2px;}</style></defs><title>Asset 24</title><g id="Layer_2" data-name="Layer 2"><g id="Layer_1-2" data-name="Layer 1"><path class="cls-1" d="M29.28,33.83c10.94,0,11.06-.06,11-11,0-3.91,1.29-8.58-4.47-10"/><path class="cls-1" d="M4.78,18.83C1.5,21.75-.15,27.41,1.91,30.75c.9,1.47,3.09,2.52,4.9,3,2,.51,4.3.12,6.47.12"/><path class="cls-1" d="M13.78,34.58c.45,1.35.91,2.71,1.43,4.25h12c2.74-8.16.15-11.39-7.92-10.83-4.14.29-4.42,3.38-5.49,6.08"/><path class="cls-1" d="M25.28,7.33l2.53,5.5h6.3c3.21-2.16,3.62-5.76,2.42-8.91C36,2.38,32.8,1.06,30.77,1c-3.4-.09-5.21,2.41-5.49,5.83"/><path class="cls-1" d="M3.28,13.33l2.53,5.5h6.3c3.21-2.16,3.62-5.76,2.42-8.91C14,8.38,10.8,7.06,8.77,7c-3.4-.09-5.21,2.41-5.49,5.83"/><path class="cls-1" d="M16.28,20.33c.67,2.33,1.33,4.67,2,7"/><path class="cls-1" d="M26.78,12.83l-4.5,4.5"/><path class="cls-1" d="M17.28,19.83l4.58-2.3c5.27,3.74,5.37,4.23,2.42,9.8"/><path class="cls-1" d="M15.28,19.83l-1.5-1"/></g></g></svg>