<svg xmlns="http://www.w3.org/2000/svg" viewBox="0 0 43.29 42.81"><defs><style>.cls-1{fill:none;stroke:#000;stroke-linecap:round;stroke-linejoin:round;stroke-width:2px;}</style></defs><title>Asset 50</title><g id="Layer_2" data-name="Layer 2"><g id="Layer_1-2" data-name="Layer 1"><path class="cls-1" d="M21.74,1c-1.17,2.83-2.65,5.58-3.43,8.52-1.09,4.08-3,6.13-7.59,5.6-3-.34-6.29-.94-9.72,1.42l11.69,9.63c-1.26,4.6-2.56,9.37-3.86,14.13l1.3.8,11.65-8.34,12.3,9.05C34.75,35.76,31.42,31.36,31,26l11.31-9.38c-3.57-2.73-7.2-1.39-10.56-1.58-2.89-.16-5.16.09-5.68-4-.43-3.44-2.48-6.69-3.81-10"/></g></g></svg>