<svg xmlns="http://www.w3.org/2000/svg" viewBox="0 0 39.58 39.69"><defs><style>.cls-1{fill:none;stroke:#000;stroke-linecap:round;stroke-linejoin:round;stroke-width:2px;}</style></defs><title>Asset 84</title><g id="Layer_2" data-name="Layer 2"><g id="Layer_1-2" data-name="Layer 1"><path class="cls-1" d="M19.7,9.25,16,16H9.33L9,17l5.69,4.89c-.62,2.29-1.28,4.75-2.28,8.44l7.17-4.83L27,30.18c-.88-3.35-1.48-5.65-2.16-8.26l6.59-5.56-8.52-.85L20.2,9.25"/><path class="cls-1" d="M18.7,1C7.24,3.29,2.68,7.72,1.2,18a18,18,0,0,0,10,19c6.66,3.43,16.55,1.22,21.13-2.85A19.15,19.15,0,0,0,26.17,2.07C24,1.24,21.53,1.33,19.2,1"/></g></g></svg>