<svg xmlns="http://www.w3.org/2000/svg" viewBox="0 0 36 36.15"><defs><style>.cls-1{fill:none;stroke:#000;stroke-linecap:round;stroke-linejoin:round;stroke-width:2px;}</style></defs><title>Asset 93</title><g id="Layer_2" data-name="Layer 2"><g id="Layer_1-2" data-name="Layer 1"><line class="cls-1" x1="35" y1="23" x2="10" y2="23"/><line class="cls-1" x1="35" y1="3" x2="10" y2="3"/><line class="cls-1" x1="35" y1="33" x2="10" y2="33"/><line class="cls-1" x1="35" y1="13" x2="10" y2="13"/><path class="cls-1" d="M2.5,31,1,34l3.28,1.15L5.35,33.9,3,31"/><path class="cls-1" d="M2.5,21,1,24l3.28,1.15c.35-.42.71-.84,1.07-1.25L3,21"/><path class="cls-1" d="M2.5,1,1,4,4.28,5.15,5.35,3.9,3,1"/><path class="cls-1" d="M2.5,11,1,14l3.28,1.15c.35-.42.71-.84,1.07-1.25L3,11"/></g></g></svg>