<svg xmlns="http://www.w3.org/2000/svg" viewBox="0 0 45.75 35.6"><defs><style>.cls-1{fill:none;stroke:#000;stroke-linecap:round;stroke-linejoin:round;stroke-width:2px;}</style></defs><title>Asset 74</title><g id="Layer_2" data-name="Layer 2"><g id="Layer_1-2" data-name="Layer 1"><path class="cls-1" d="M1,17.53c4-.65,7.33-1.92,10.22-5.31,1.6-1.89,5.4-2.23,8.29-2.6a70,70,0,0,1,9.33-.09C35.4-.38,35.4-.38,44.75,3.12V8l-6.1.95C32.43,14.47,34.26,21.46,34,28A59.68,59.68,0,0,1,32.9,34.6c-4.73-3.66-1.68-8-3.66-11.57H13.56c-.43,3.44-.87,7-1.32,10.46l-1.78.41c-3.3-5.58-.16-12.08-2-17.87"/><path class="cls-1" d="M30.25,8l5,4"/></g></g></svg>