<svg xmlns="http://www.w3.org/2000/svg" viewBox="0 0 44.07 32.19"><defs><style>.cls-1{fill:none;stroke:#000;stroke-linecap:round;stroke-linejoin:round;stroke-width:2px;}</style></defs><title>Asset 13</title><g id="Layer_2" data-name="Layer 2"><g id="Layer_1-2" data-name="Layer 1"><path class="cls-1" d="M1,4.15c0,7.5.09,15,0,22.5C.94,30,2.24,31.22,5.54,31.19c11-.11,22-.09,33,0,2.9,0,4.57-.76,4.53-4C43,18.81,43,10.48,43,1.76a31,31,0,0,0-4-.59c-11.16,0-22.33-.06-33.5,0-1.64,0-4.45-1.25-4,2.45"/><path class="cls-1" d="M2,3.65,22,23,42,3.65"/><path class="cls-1" d="M14,18.15q-5.49,5.51-11,11"/><path class="cls-1" d="M30,18.15q5.51,5.51,11,11"/></g></g></svg>