<svg xmlns="http://www.w3.org/2000/svg" viewBox="0 0 39.26 39.16"><defs><style>.cls-1{fill:none;stroke:#000;stroke-linecap:round;stroke-linejoin:round;stroke-width:2px;}</style></defs><title>Asset 46</title><g id="Layer_2" data-name="Layer 2"><g id="Layer_1-2" data-name="Layer 1"><path class="cls-1" d="M34.55,3.21,32.12,2.14,32.9,1,28.58,4.19c-3-.67-6-1.89-9-1.88-8.9,0-17.1,4.86-18.47,16.9-1,9.13,6.55,18.09,16.47,18.88,8.43.68,17.08-4,18.87-14.41.49-2.85-.54-6-.88-9"/><path class="cls-1" d="M27.05,11.21c-8.24-5.31-17.18-2.56-19.5,6-1.35,5,.81,10.31,5.5,13.5,3.45,2.34,9.61,1.86,13-1,5.14-4.34,6.07-8.21,3.51-14.51a1.34,1.34,0,0,1,0-.49"/><path class="cls-1" d="M36.05,4.71l1.07,2.43,1.14-.78-3.71,5-5.5-1.18"/><path class="cls-1" d="M22.55,15.21c-5.74-1.29-7.9-.57-9,3s.24,6.49,3.5,7.5c4.34,1.33,6.41-.1,8-5.5"/><path class="cls-1" d="M28.05,4.71c.18,1.68.35,3.36.57,5.49L18.55,20.71"/><path class="cls-1" d="M34.05,5.21l-3,3"/></g></g></svg>