<svg xmlns="http://www.w3.org/2000/svg" viewBox="0 0 40.53 36.91"><defs><style>.cls-1{fill:none;stroke:#000;stroke-linecap:round;stroke-linejoin:round;stroke-width:2px;}</style></defs><title>Asset 23</title><g id="Layer_2" data-name="Layer 2"><g id="Layer_1-2" data-name="Layer 1"><path class="cls-1" d="M34.74,12c-1.12-3.57-2.25-7.14-3.47-11H9.33C8.19,4.48,7,8.24,5.74,12"/><path class="cls-1" d="M3.24,29C-.45,24,1.36,18.72,2.09,13H38c1.38,5.33,2.95,10.67-.75,16"/><path class="cls-1" d="M31.24,30v5.3l6,.56V29h-34v6.32l6,.59V30"/><path class="cls-1" d="M31.24,17c-2.51.57-3.95,1.94-2.39,4.43.48.77,2.25,1.05,3.38,1,.72-.06,2-1.51,1.89-1.84A18.83,18.83,0,0,0,31.74,17"/><path class="cls-1" d="M9.24,17c-2.51.57-3.95,1.94-2.39,4.43.48.77,2.25,1.05,3.38,1,.72-.06,2-1.51,1.89-1.84A18.83,18.83,0,0,0,9.74,17"/></g></g></svg>