<svg xmlns="http://www.w3.org/2000/svg" viewBox="0 0 39.86 40.15"><defs><style>.cls-1{fill:none;stroke:#000;stroke-linecap:round;stroke-linejoin:round;stroke-width:2px;}</style></defs><title>Asset 57</title><g id="Layer_2" data-name="Layer 2"><g id="Layer_1-2" data-name="Layer 1"><path class="cls-1" d="M12.33,30.05c2.86,7.08,7.11,9.74,16,9,3.3-.29,6.57-.9,9.94-1.37L37,33.28c3.32-7.54,2.54-10.74-4.12-16.23C31.49,2.78,18.37-3.49,6.81,4.53,2.15,7.77.24,11.9,1.27,17.56c.65,3.57.76,7.24,1.1,10.67a93.15,93.15,0,0,1,10.44.89c7.44,1.42,15-.31,20-10.57"/><path class="cls-1" d="M24.83,13.05,22,15.15l2.8,2.8,3.55-3.56-3.05-1.34"/><path class="cls-1" d="M8.83,13.05,6,15.15,8.83,18l3.55-3.56L9.33,13.05"/><path class="cls-1" d="M16.83,13.05,14,15.15l2.8,2.8,3.55-3.56-3.05-1.34"/></g></g></svg>