<svg xmlns="http://www.w3.org/2000/svg" viewBox="0 0 43.52 35.6"><defs><style>.cls-1{fill:none;stroke:#000;stroke-linecap:round;stroke-linejoin:round;stroke-width:2px;}</style></defs><title>Asset 45</title><g id="Layer_2" data-name="Layer 2"><g id="Layer_1-2" data-name="Layer 1"><path class="cls-1" d="M17,20.1c2.66-1,5.32-2,8-3,3.09-1.1,5.22-2.27,5.22-6.5S28.17,5,25,4.14a114.74,114.74,0,0,0-13-3C5.51.18,1.36,3.74,1,10.1s4.12,10.81,10.5,10.48c1.67-.08,3.33-.32,5-.48"/><path class="cls-1" d="M6,20.6c.42,4.51.84,9,1.3,14h5.92c1.25-4.46,2.51-9,3.78-13.5"/><path class="cls-1" d="M11,6.6c-3.35.73-4.8,2.81-3.37,5.93.49,1.06,2.6,2,3.85,1.88a4.06,4.06,0,0,0,2.83-2.82c.07-1.47-1.11-3-1.84-4.48-.13-.27-.64-.35-1-.51"/><path class="cls-1" d="M34.52,12.1l8,1"/><path class="cls-1" d="M34.52,8.1l8,1"/></g></g></svg>