<svg xmlns="http://www.w3.org/2000/svg" viewBox="0 0 40.04 38.13"><defs><style>.cls-1{fill:none;stroke:#000;stroke-linecap:round;stroke-linejoin:round;stroke-width:2px;}</style></defs><title>Asset 61</title><g id="Layer_2" data-name="Layer 2"><g id="Layer_1-2" data-name="Layer 1"><path class="cls-1" d="M36,19c-.39-1.58-.78-3.15-1.22-4.89H1v18H35c.33-4.33.65-8.46,1-12.6"/><path class="cls-1" d="M5,33.1c-.08,2.15-.09,4.06,3,4,10-.08,20,0,31,0,0-5.62.16-10.82-.18-16,0-.75-2.49-1.34-3.82-2"/><path class="cls-1" d="M13.5,3.6,15,1l2,.53V10.1"/><path class="cls-1" d="M17,18.1c-3,.34-5.12,2-4.82,5,.16,1.61,1.86,3.56,3.39,4.4,2.48,1.37,4.93.29,5.86-2.4,1.22-3.53-.16-6-3.93-7"/><path class="cls-1" d="M20.5,3.6l-3-2"/></g></g></svg>