<svg xmlns="http://www.w3.org/2000/svg" viewBox="0 0 23.07 39.34"><defs><style>.cls-1{fill:none;stroke:#000;stroke-linecap:round;stroke-linejoin:round;stroke-width:2px;}</style></defs><title>Asset 100</title><g id="Layer_2" data-name="Layer 2"><g id="Layer_1-2" data-name="Layer 1"><path class="cls-1" d="M16,11.94,9.29,18.67l-1-.73V28.51l5.17.53c.35-2.41.62-4.28.87-5.95C21.51,17.88,23.58,13,21,7.44a10.73,10.73,0,0,0-13-6C3,2.8.51,6.34,1.08,12l5-.52-.53-.8c1.68-1.26,3.57-3.74,5-3.48,2,.37,3.72,2.71,5.55,4.21"/><path class="cls-1" d="M11.27,32.94c-2.51.56-4,1.94-2.39,4.43.48.77,2.25,1.05,3.38,1,.72,0,2-1.5,1.89-1.83a19.49,19.49,0,0,0-2.38-3.55"/></g></g></svg>