<svg xmlns="http://www.w3.org/2000/svg" viewBox="0 0 39.86 39.57"><defs><style>.cls-1{fill:none;stroke:#000;stroke-linecap:round;stroke-linejoin:round;stroke-width:2px;}</style></defs><title>Asset 86</title><g id="Layer_2" data-name="Layer 2"><g id="Layer_1-2" data-name="Layer 1"><path class="cls-1" d="M24.8,25.07l4.36,4.34c5.73-3,10.52-10.69,9.58-15.33C37.88,9.83,35.89,6.63,29.28,6c1.43,6.88-.81,12.65-5.49,17.54-3.24,3.39-4.7,3.35-8,0-4.79-4.87-6.22-9.3-5.5-17-5.48-.06-7.64,1.51-9,6.5-1.46,5.37,2.52,12.86,9.14,16.34l4.36-4.34"/><path class="cls-1" d="M27.8,5.07c-5.72-5.43-10.28-5.43-16,0"/><path class="cls-1" d="M19.8,26.57c2.13,4.09,2.63,8.12-.5,12"/><path class="cls-1" d="M29.8,29.57c.73,1.47,1.45,3,2.3,4.67l-2.8,4.33"/><path class="cls-1" d="M9.8,29.57c.73,1.47,1.45,3,2.3,4.67L9.3,38.57"/></g></g></svg>