<svg xmlns="http://www.w3.org/2000/svg" viewBox="0 0 39.87 36.03"><defs><style>.cls-1{fill:none;stroke:#000;stroke-linecap:round;stroke-linejoin:round;stroke-width:2px;}</style></defs><title>Asset 87</title><g id="Layer_2" data-name="Layer 2"><g id="Layer_1-2" data-name="Layer 1"><path class="cls-1" d="M1.5,34.53c5.76-3,11.29-.39,17,.36,8.89,1.16,18.61-5.28,20.08-13.84C40.84,8.12,28.88-.14,18,1.13,5.68,2.57-3.44,12.86,3.27,26.57c-.29,2.61-.53,4.78-.77,7"/><path class="cls-1" d="M27.5,24.53q-7.5-4.84-15,0"/><path class="cls-1" d="M25,11c-2.51.57-4,1.94-2.39,4.43.48.77,2.25,1.05,3.38,1,.72-.06,2-1.51,1.89-1.84A19.84,19.84,0,0,0,25.5,11"/><path class="cls-1" d="M15,11c-2.51.57-4,1.94-2.39,4.43.48.77,2.25,1.05,3.38,1,.72-.06,2-1.51,1.89-1.84A19.84,19.84,0,0,0,15.5,11"/></g></g></svg>