<svg xmlns="http://www.w3.org/2000/svg" viewBox="0 0 37.34 36.91"><defs><style>.cls-1{fill:none;stroke:#000;stroke-linecap:round;stroke-linejoin:round;stroke-width:2px;}</style></defs><title>Asset 97</title><g id="Layer_2" data-name="Layer 2"><g id="Layer_1-2" data-name="Layer 1"><path class="cls-1" d="M30,1c.3,3.77,3.18,4.09,6.39,4.56L33,9.68l.67,4.71-4.42-2.23-3.92,2.4c.1-1.92.16-3.25.23-4.58.41-.28.82-.56,1.22-.85L22.07,6.87c3.36-2,6.71-2,6.88-5.87"/><path class="cls-1" d="M10,1C1,6.17.07,14.7,1.6,21.47c1.68,7.38,6.82,12.25,14.35,14,6.71,1.55,16.19-.84,20.25-9-3.24,0-6.29.33-9.25-.06C15.2,24.9,9,16.65,10.43,5a29.17,29.17,0,0,0,0-3.5"/></g></g></svg>